<svg xmlns="http://www.w3.org/2000/svg" viewBox="0 0 640 420" role="img" aria-labelledby="t d"><title id="t">Ideas made from many available resources</title><desc id="d">A lightbulb surrounded by index cards, a ruler, a computer, and people icons representing ideation with available resources.</desc><rect width="640" height="420" rx="36" fill="#fffaf0"/><circle cx="319" cy="190" r="90" fill="#e6b84a" opacity=".92"/><path d="M274 173c0-39 30-69 68-69s68 30 68 69c0 27-14 43-31 60-11 11-17 20-18 35h-83c-1-15-7-25-18-36-17-17-30-33-30-59z" fill="#fff" stroke="#17324d" stroke-width="8" transform="translate(-22 0)"/><path d="M280 281h80M289 304h61" stroke="#17324d" stroke-width="9" stroke-linecap="round"/><g fill="#fff" stroke="#247a78" stroke-width="6"><rect x="69" y="77" width="104" height="76" rx="12" transform="rotate(-8 121 115)"/><rect x="473" y="77" width="106" height="76" rx="12" transform="rotate(8 526 115)"/><rect x="58" y="280" width="112" height="68" rx="12"/><rect x="466" y="275" width="118" height="76" rx="12"/></g><path d="M91 111h59M91 130h42M489 110h67M489 130h49" stroke="#17324d" stroke-width="7" stroke-linecap="round"/><path d="M79 300h70v28H79z" fill="#8fc9bd"/><path d="M493 294h66v40h-66z" fill="#eaf5fb" stroke="#17324d" stroke-width="4"/><path d="M526 334v18" stroke="#17324d" stroke-width="6"/><path d="M145 223l-76-30M493 222l74-32M210 95l-35-51M430 94l35-50" stroke="#247a78" stroke-width="8" stroke-linecap="round"/></svg>