<svg xmlns="http://www.w3.org/2000/svg" viewBox="0 0 640 360" role="img" aria-hidden="true">
<rect width="640" height="360" rx="28" fill="#f5fbff"/>

<circle cx="320" cy="180" r="72" fill="#f3c74f"/>
<path d="M295 184l20 20 42-52" fill="none" stroke="#17324d" stroke-width="12" stroke-linecap="round" stroke-linejoin="round"/>
<circle cx="105" cy="90" r="45" fill="#e8f5f1"/><circle cx="535" cy="90" r="45" fill="#eaf5fb"/><circle cx="105" cy="270" r="45" fill="#fff8e5"/><circle cx="535" cy="270" r="45" fill="#fceee8"/>
<path d="M150 110l110 48M490 110l-110 48M150 250l110-48M490 250l-110-48" stroke="#2d6f9f" stroke-width="8" stroke-dasharray="10 12"/>
<path d="M80 90h50M105 65v50" stroke="#2f8f83" stroke-width="9" stroke-linecap="round"/>
<path d="M515 78h40M515 96h28" stroke="#2d6f9f" stroke-width="9" stroke-linecap="round"/>
<path d="M83 270c12-20 32-20 44 0" fill="none" stroke="#17324d" stroke-width="9"/><circle cx="93" cy="258" r="5" fill="#17324d"/><circle cx="118" cy="258" r="5" fill="#17324d"/>
<path d="M518 250l34 34M552 250l-34 34" stroke="#e78a6b" stroke-width="10" stroke-linecap="round"/>

</svg>